<svg width="33" height="33" viewBox="0 0 33 33" fill="none" xmlns="http://www.w3.org/2000/svg">
<g clip-path="url(#clip0_10483_12169)">
<path d="M22.0499 0.717773H11.1859C5.34937 0.717773 0.61792 5.44923 0.61792 11.2858V22.1498C0.61792 27.9863 5.34937 32.7178 11.1859 32.7178H22.0499C27.8865 32.7178 32.6179 27.9863 32.6179 22.1498V11.2858C32.6179 5.44923 27.8865 0.717773 22.0499 0.717773Z" fill="white"/>
<path d="M22.0499 0.717773H11.1859C5.34937 0.717773 0.61792 5.44923 0.61792 11.2858V22.1498C0.61792 27.9863 5.34937 32.7178 11.1859 32.7178H22.0499C27.8865 32.7178 32.6179 27.9863 32.6179 22.1498V11.2858C32.6179 5.44923 27.8865 0.717773 22.0499 0.717773Z" fill="url(#paint0_linear_10483_12169)"/>
<g filter="url(#filter0_d_10483_12169)">
<path d="M6 15.4109C6 13.3732 6 12.3543 6.38366 11.576C6.72113 10.8914 7.25962 10.3348 7.92195 9.98592C8.67492 9.58936 9.66061 9.58936 11.632 9.58936H16.208C18.1794 9.58936 19.1651 9.58936 19.918 9.98592C20.5804 10.3348 21.1189 10.8914 21.4563 11.576C21.84 12.3543 21.84 13.3732 21.84 15.4109V18.3217C21.84 20.3594 21.84 21.3783 21.4563 22.1566C21.1189 22.8412 20.5804 23.3978 19.918 23.7466C19.1651 24.1432 18.1794 24.1432 16.208 24.1432H11.632C9.66061 24.1432 8.67492 24.1432 7.92195 23.7466C7.25962 23.3978 6.72113 22.8412 6.38366 22.1566C6 21.3783 6 20.3594 6 18.3217V15.4109Z" fill="white"/>
<path d="M23.6 14.5753C23.6 14.4161 23.6 14.3365 23.623 14.2659C23.6434 14.2034 23.6767 14.1462 23.7206 14.0983C23.7702 14.0442 23.8382 14.0069 23.9743 13.9324L25.9326 12.8595C26.6148 12.4858 26.9559 12.299 27.2342 12.3366C27.477 12.3694 27.6957 12.5054 27.8375 12.7119C28 12.9484 28 13.3474 28 14.1455V19.5871C28 20.3851 28 20.7841 27.8375 21.0207C27.6957 21.2271 27.477 21.3631 27.2342 21.396C26.9559 21.4336 26.6148 21.2467 25.9326 20.873L23.9743 19.8002C23.8382 19.7256 23.7702 19.6884 23.7206 19.6342C23.6767 19.5864 23.6434 19.5292 23.623 19.4667C23.6 19.396 23.6 19.3164 23.6 19.1572V14.5753Z" fill="white"/>
</g>
</g>
<defs>
<filter id="filter0_d_10483_12169" x="3.40311" y="7.51184" width="27.1938" height="19.7475" filterUnits="userSpaceOnUse" color-interpolation-filters="sRGB">
<feFlood flood-opacity="0" result="BackgroundImageFix"/>
<feColorMatrix in="SourceAlpha" type="matrix" values="0 0 0 0 0 0 0 0 0 0 0 0 0 0 0 0 0 0 127 0" result="hardAlpha"/>
<feOffset dy="0.519379"/>
<feGaussianBlur stdDeviation="1.29845"/>
<feComposite in2="hardAlpha" operator="out"/>
<feColorMatrix type="matrix" values="0 0 0 0 0 0 0 0 0 0 0 0 0 0 0 0 0 0 0.1 0"/>
<feBlend mode="normal" in2="BackgroundImageFix" result="effect1_dropShadow_10483_12169"/>
<feBlend mode="normal" in="SourceGraphic" in2="effect1_dropShadow_10483_12169" result="shape"/>
</filter>
<linearGradient id="paint0_linear_10483_12169" x1="4.37102" y1="29.6819" x2="37.1698" y2="-4.09598" gradientUnits="userSpaceOnUse">
<stop offset="0.23798" stop-color="#50C750"/>
<stop offset="1" stop-color="#EBFF00"/>
</linearGradient>
<clipPath id="clip0_10483_12169">
<rect width="33" height="33" fill="white"/>
</clipPath>
</defs>
</svg>
